<?xml version="1.0" encoding="UTF-8"?>
<svg width="158px" height="45px" viewBox="0 0 158 45" version="1.1" xmlns="http://www.w3.org/2000/svg" xmlns:xlink="http://www.w3.org/1999/xlink">
    <!-- Generator: Sketch 41.1 (35376) - http://www.bohemiancoding.com/sketch -->
    <title>Page 1</title>
    <desc>Created with Sketch.</desc>
    <defs>
        <polygon id="path-1" points="42.9223223 0.622265625 0.65520625 0.622265625 0.65520625 32.4035859 42.9223223 32.4035859 42.9223223 0.622265625"></polygon>
        <polygon id="path-3" points="0 44.3777344 157.590188 44.3777344 157.590188 0.703125 0 0.703125"></polygon>
    </defs>
    <g id="Page-1" stroke="none" stroke-width="1" fill="none" fill-rule="evenodd">
        <g id="桌面-HD-Copy" transform="translate(-21.000000, -16.000000)">
            <g id="Group" transform="translate(-1.000000, 0.000000)">
                <g id="Page-1" transform="translate(22.000000, 16.000000)">
                    <g id="Group-3" transform="translate(35.267857, 0.080859)">
                        <mask id="mask-2" fill="white">
                            <use xlink:href="#path-1"></use>
                        </mask>
                        <g id="Clip-2"></g>
                        <path d="M28.3792687,28.2674531 C27.6435812,28.9909687 26.4444741,28.9909687 25.7080812,28.2674531 C24.9921437,27.5530781 24.3608491,26.9258906 24.3608491,26.9258906 L26.3774652,24.908625 L23.8410009,22.37175 L21.8166259,24.3953437 L19.7908402,22.37175 L17.246617,24.908625 L19.280867,26.9258906 C19.280867,26.9258906 18.6453402,27.5530781 17.9329295,28.2674531 C17.2007687,28.9909687 15.9974295,28.9909687 15.251867,28.2674531 C14.5225277,27.5347969 14.5225277,26.3155781 15.251867,25.5920625 C16.0164741,24.8228437 21.8032241,19.0220625 21.8032241,19.0220625 C21.8032241,19.0220625 27.6026705,24.8228437 28.3792687,25.5920625 C29.1198937,26.3155781 29.1198937,27.5347969 28.3792687,28.2674531 L28.3792687,28.2674531 Z M15.251867,7.43385937 C14.5225277,6.68221875 14.5225277,5.50940625 15.251867,4.76339062 C15.9974295,4.03776562 17.2007687,4.03776562 17.9329295,4.76339062 C18.6453402,5.47354687 19.280867,6.10776562 19.280867,6.10776562 L17.246617,8.11307812 L19.7908402,10.6590937 L21.8166259,8.6355 L23.8410009,10.6590937 L26.3774652,8.11307812 L24.3608491,6.10776562 C24.3608491,6.10776562 24.9921437,5.47354687 25.7080812,4.76339062 C26.4444741,4.03776562 27.6435812,4.03776562 28.3792687,4.76339062 C29.1198937,5.50940625 29.1198937,6.68221875 28.3792687,7.43385937 C27.6026705,8.20940625 21.8032241,14.0080781 21.8032241,14.0080781 C21.8032241,14.0080781 16.0164741,8.20940625 15.251867,7.43385937 L15.251867,7.43385937 Z M24.3608491,16.5266719 C24.3608491,16.5266719 30.323233,10.564875 30.9185545,9.9714375 C33.0705991,7.83464062 33.0705991,4.37315625 30.9185545,2.21315625 C28.7756795,0.091828125 25.3074384,0.091828125 23.1469295,2.21315625 C22.3075545,3.07729687 21.8166259,3.56245312 21.8166259,3.56245312 C21.8166259,3.56245312 21.3285187,3.07729687 20.4891437,2.21315625 C18.3335723,0.091828125 14.8561616,0.091828125 12.7097598,2.21315625 C10.5661795,4.37315625 10.5661795,7.83464062 12.7097598,9.9714375 C13.2994384,10.564875 19.280867,16.5266719 19.280867,16.5266719 C19.280867,16.5266719 13.2994384,22.456125 12.7097598,23.0544844 C10.5661795,25.1912812 10.5661795,28.6668281 12.7097598,30.8120625 C14.8561616,32.9340937 18.3335723,32.9340937 20.4891437,30.8120625 C21.3285187,29.9570625 21.8166259,29.4529219 21.8166259,29.4529219 C21.8166259,29.4529219 22.3075545,29.9570625 23.1469295,30.8120625 C25.3074384,32.9340937 28.7756795,32.9340937 30.9185545,30.8120625 C33.0705991,28.6668281 33.0705991,25.1912812 30.9185545,23.0544844 C30.323233,22.456125 24.3608491,16.5266719 24.3608491,16.5266719 L24.3608491,16.5266719 Z M38.7727062,17.8387031 C38.0370187,18.5903437 36.8379116,18.5903437 36.0930545,17.8387031 C35.4927955,17.24175 34.7528759,16.5266719 34.7528759,16.5266719 C34.7528759,16.5266719 35.4927955,15.7722187 36.0930545,15.1815937 C36.8379116,14.4405 38.0370187,14.4405 38.7727062,15.1815937 C39.1423134,15.5500312 39.3186527,16.0316719 39.3186527,16.5266719 C39.3186527,16.9928437 39.1423134,17.4794062 38.7727062,17.8387031 L38.7727062,17.8387031 Z M41.3162241,12.6412031 C39.1825188,10.51425 35.6867688,10.51425 33.5438938,12.6412031 C32.9443402,13.2585469 32.2044205,13.9771406 32.2044205,13.9771406 L30.1878045,11.9718281 L27.6435813,14.4847969 L29.6601973,16.5266719 L27.6435813,18.5270625 L30.1878045,21.0639375 L32.2044205,19.0480781 C32.2044205,19.0480781 32.9443402,19.778625 33.5438938,20.3896406 C35.6867688,22.523625 39.1825188,22.523625 41.3162241,20.3896406 C42.3954205,19.3187812 42.9223223,17.9104219 42.9223223,16.5266719 C42.9223223,15.1176094 42.3954205,13.7029219 41.3162241,12.6412031 L41.3162241,12.6412031 Z M7.49928661,17.8387031 C6.74949196,18.5903437 5.54897411,18.5903437 4.80552768,17.8387031 C4.44861696,17.4794062 4.26310804,16.9928437 4.26310804,16.5266719 C4.26310804,16.0316719 4.44861696,15.5500312 4.80552768,15.1815937 C5.54897411,14.4405 6.74949196,14.4405 7.49928661,15.1815937 C8.08967054,15.7722187 8.83029554,16.5266719 8.83029554,16.5266719 C8.83029554,16.5266719 8.08967054,17.24175 7.49928661,17.8387031 L7.49928661,17.8387031 Z M13.3805545,21.0639375 L15.9473491,18.5270625 L13.9229741,16.5266719 L15.9473491,14.4847969 L13.3805545,11.9718281 L11.3695812,13.9771406 C11.3695812,13.9771406 10.6472955,13.2585469 10.0329295,12.6412031 C7.89992946,10.51425 4.40065268,10.51425 2.26553661,12.6412031 C1.17928661,13.7029219 0.65520625,15.1176094 0.65520625,16.5266719 C0.65520625,17.9104219 1.17928661,19.3187812 2.26553661,20.3896406 C4.40065268,22.523625 7.89992946,22.523625 10.0329295,20.3896406 C10.6472955,19.778625 11.3695812,19.0480781 11.3695812,19.0480781 L13.3805545,21.0639375 Z" id="Fill-1" fill="#D71F26" mask="url(#mask-2)"></path>
                    </g>
                    <path d="M27.8629473,32.5746562 C27.5293134,32.93325 27.1004562,33.1097344 26.5368759,33.1097344 C26.0261973,33.1097344 25.6121527,32.9121562 25.2742866,32.5570781 C24.949117,32.1977812 24.7967598,31.7386406 24.7967598,31.1620781 C24.7967598,30.6277031 24.949117,30.1650469 25.2827509,29.8184062 C25.6156795,29.4443437 26.0445366,29.2615312 26.5545098,29.2615312 C27.1004562,29.2615312 27.5293134,29.4443437 27.8629473,29.8184062 C28.1965812,30.1552031 28.3729205,30.6277031 28.3729205,31.1845781 C28.3729205,31.7477812 28.1965812,32.2012969 27.8629473,32.5746562 L27.8629473,32.5746562 Z M28.2784027,28.1590312 L28.2784027,28.8656719 C27.6957777,28.2848906 27.0242777,28.0008281 26.2836527,28.0008281 C25.4266437,28.0008281 24.7107062,28.3080937 24.1464205,28.9008281 C23.5729652,29.5034062 23.2795366,30.2578594 23.2795366,31.1620781 C23.2795366,32.0754375 23.5729652,32.8530937 24.1464205,33.4556719 C24.7184652,34.0673906 25.4365187,34.3641094 26.323858,34.3641094 C27.0242777,34.3641094 27.6725009,34.0997344 28.2784027,33.5470781 L28.2784027,34.1939531 L29.7624741,34.1939531 L29.7624741,28.1590312 L28.2784027,28.1590312 Z" id="Fill-4" fill="#000000"></path>
                    <path d="M7.90634821,25.4396953 L9.45883929,25.4396953 L9.45883929,28.8519609 C9.45883929,28.8519609 10.0090179,28.0700859 11.208125,28.0700859 C12.3091875,28.0700859 13.3164375,28.8020391 13.3164375,30.6505547 L13.3164375,34.2238359 L11.9120714,34.2238359 L11.9120714,30.5429766 C11.9120714,29.9031328 11.6602589,29.1177422 10.7630446,29.1177422 C9.89122321,29.1177422 9.45883929,29.7554766 9.45883929,30.5429766 L9.45883929,34.2238359 L7.90634821,34.2238359 L7.90634821,25.4396953 Z" id="Fill-6" fill="#000000"></path>
                    <path d="M7.35694554,32.7229453 C7.01837411,33.1905234 6.59868661,33.5941172 6.06190982,33.8922422 C5.44965982,34.2381797 4.76264196,34.4132578 4.01002589,34.4132578 C2.90473125,34.4132578 1.95602589,34.0033359 1.17731161,33.2481797 C0.39648125,32.4627891 7.05357143e-05,31.5445078 7.05357143e-05,30.4166953 C7.05357143e-05,29.2382578 0.442329464,28.2384141 1.33107946,27.4537266 C2.10556161,26.7562266 2.99078482,26.3962266 3.99521339,26.3962266 C4.72666875,26.3962266 5.41227589,26.6029453 6.06190982,26.9404453 C6.58105268,27.2512266 7.01837411,27.6281016 7.35694554,28.1055234 L6.03510625,29.0498203 C5.95399018,28.8248203 5.81362411,28.6216172 5.66126696,28.4373984 C5.22324018,27.9466172 4.67658839,27.6822422 3.98745446,27.6822422 C3.32371339,27.6822422 2.76365982,27.9466172 2.33198125,28.4563828 C1.88125804,28.9696641 1.66330268,29.6298984 1.66330268,30.4166953 C1.66330268,31.2309141 1.88125804,31.8960703 2.33198125,32.4163828 C2.75942768,32.9120859 3.30607946,33.1631016 3.98745446,33.1631016 C4.64978482,33.1631016 5.20419554,32.9120859 5.66126696,32.3988047 C5.80445446,32.2012266 5.94482054,32.0036484 6.03510625,31.7877891 C6.03510625,31.7877891 7.01837411,32.4845859 7.35694554,32.7229453" id="Fill-8" fill="#000000"></path>
                    <path d="M20.4519009,28.069875 C18.9854634,28.0424531 18.5220438,28.85175 18.5220438,28.85175 L18.4543295,28.1415937 L17.145892,28.1415937 L17.145892,34.2208125 L18.6560616,34.2208125 L18.6560616,30.5294062 C18.6560616,29.7552656 19.132883,29.1041719 19.9828384,29.1041719 C20.8892223,29.1041719 21.155142,29.9029219 21.155142,30.5294062 L21.155142,34.2208125 L22.5630348,34.2208125 L22.5630348,30.6454219 C22.5630348,28.7891719 21.5529634,28.069875 20.4519009,28.069875" id="Fill-10" fill="#000000"></path>
                    <mask id="mask-4" fill="white">
                        <use xlink:href="#path-3"></use>
                    </mask>
                    <g id="Clip-13"></g>
                    <polygon id="Fill-12" fill="#D71F26" mask="url(#mask-4)" points="14.4696964 34.2203906 15.8952232 34.2203906 15.8952232 28.1186719 14.4696964 28.1186719"></polygon>
                    <path d="M15.1603116,27.5109609 C14.669383,27.5109609 14.3442134,27.1333828 14.3442134,26.7023672 C14.3442134,26.2390078 14.6961866,25.8923672 15.1821777,25.8923672 C15.7013205,25.8923672 16.0180259,26.2390078 16.0180259,26.7023672 C16.0180259,27.1333828 15.7013205,27.5109609 15.1821777,27.5109609 L15.1603116,27.5109609 Z" id="Fill-14" fill="#D71F26" mask="url(#mask-4)"></path>
                    <path d="M15.1603116,36.4771406 C14.669383,36.4771406 14.3442134,36.1030781 14.3442134,35.6812031 C14.3442134,35.2009687 14.6961866,34.842375 15.1821777,34.842375 C15.7013205,34.842375 16.0180259,35.2009687 16.0180259,35.6812031 C16.0180259,36.1030781 15.7013205,36.4771406 15.1821777,36.4771406 L15.1603116,36.4771406 Z" id="Fill-15" fill="#D71F26" mask="url(#mask-4)"></path>
                    <path d="M36.852442,37.0443516 C35.9502902,37.0359141 35.3091205,37.4191172 34.7871563,37.9928672 C34.4309509,37.3579453 33.8349241,37.0809141 33.1993973,37.0443516 C31.8994241,37.0162266 31.3584152,37.8346641 31.3584152,37.8346641 L31.2963438,37.1104453 L29.920192,37.1104453 L29.920192,43.1643516 L31.4578705,43.1643516 L31.4578705,39.5165391 C31.4578705,38.7318516 31.8761473,38.1011484 32.6760223,38.1011484 C33.4963527,38.1011484 33.7361741,38.8830234 33.7361741,39.5165391 L33.7361741,43.1643516 L35.1334866,43.1643516 L35.1334866,39.5938828 L35.1334866,39.6114609 C35.1525313,38.5771641 35.6124241,38.1011484 36.3248348,38.1011484 C37.1451652,38.1011484 37.3948616,38.8830234 37.3948616,39.5165391 L37.3948616,43.1643516 L38.7971116,43.1643516 L38.7971116,39.6163828 C38.7971116,37.7812266 37.8639241,37.0809141 36.852442,37.0443516" id="Fill-16" fill="#000000" mask="url(#mask-4)"></path>
                    <polygon id="Fill-17" fill="#000000" mask="url(#mask-4)" points="14.4696964 43.1641406 15.8952232 43.1641406 15.8952232 37.1109375 14.4696964 37.1109375"></polygon>
                    <path d="M26.1174705,38.0245078 C25.6251313,38.0245078 25.2371848,38.2220859 24.9169527,38.6228672 C24.5826134,39.0236484 24.4253188,39.5306016 24.4253188,40.1289609 C24.4253188,40.7772422 24.5826134,41.2933359 24.9049616,41.6941172 C25.2329527,42.0667734 25.6159616,42.2643516 26.1174705,42.2643516 C26.6083991,42.2643516 27.0238545,42.0667734 27.3391491,41.6765391 C27.672783,41.2750547 27.8441848,40.7688047 27.8441848,40.1289609 C27.8441848,39.5165391 27.672783,39.0236484 27.3624259,38.6109141 C27.0330241,38.2220859 26.6218009,38.0245078 26.1174705,38.0245078 M26.003908,36.9719297 C26.5907652,36.9719297 27.109908,37.1104453 27.6149438,37.4022422 C28.1235063,37.6764609 28.5213277,38.0828672 28.7872473,38.5462266 C29.0672741,39.0503672 29.2203366,39.5763047 29.2203366,40.1289609 C29.2203366,40.7076328 29.0672741,41.2307578 28.7872473,41.7250547 C28.5079259,42.2200547 28.1235063,42.6166172 27.633283,42.8802891 C27.1416491,43.1643516 26.6083991,43.2951328 26.0264795,43.2951328 C25.142667,43.2951328 24.402042,43.0068516 23.7989616,42.3852891 C23.1761313,41.7707578 22.873533,41.0233359 22.873533,40.1289609 C22.873533,39.1987266 23.2255063,38.4196641 23.920283,37.8051328 C24.5290063,37.2510703 25.2329527,36.9719297 26.003908,36.9719297" id="Fill-18" fill="#000000" mask="url(#mask-4)"></path>
                    <path d="M11.2081955,37.0165078 C9.76856161,37.0038516 9.28257054,37.8173672 9.28257054,37.8173672 L9.21415089,37.1107266 L7.89372232,37.1107266 L7.89372232,43.1639297 L9.41306161,43.1639297 L9.41306161,39.4992422 C9.41306161,38.7033047 9.87789196,38.0824453 10.7264366,38.0824453 C11.6370527,38.0824453 11.8895705,38.8608047 11.8895705,39.4992422 L11.8895705,43.1639297 L13.316508,43.1639297 L13.316508,39.6117422 C13.316508,37.7583047 12.309258,37.0446328 11.2081955,37.0165078" id="Fill-19" fill="#000000" mask="url(#mask-4)"></path>
                    <path d="M3.34557946,43.2509063 C4.80355268,43.2712969 5.28107946,42.4627031 5.28107946,42.4627031 L5.35373125,43.1637188 L6.67557054,43.1637188 L6.67557054,37.1105156 L5.13295446,37.1105156 L5.13295446,40.7850469 C5.13295446,41.567625 4.69563304,42.220125 3.82945446,42.220125 C2.91390089,42.220125 2.56615982,41.4143438 2.56615982,40.7850469 L2.56615982,37.1105156 L1.02777589,37.1105156 L1.02777589,40.6627031 C1.02777589,42.5259844 2.24099018,43.2361406 3.34557946,43.2509063" id="Fill-20" fill="#000000" mask="url(#mask-4)"></path>
                    <path d="M22.7656839,41.9830312 C22.5124607,42.3676406 22.165425,42.6699844 21.7457375,42.8949844 C21.2533982,43.1895937 20.6947554,43.3309219 20.1135411,43.3309219 C19.2339607,43.3309219 18.4799339,43.0067812 17.8578089,42.3999844 C17.2307464,41.7833437 16.9189786,41.0429531 16.9189786,40.1598281 C16.9189786,39.2211562 17.2808268,38.4336562 17.9798357,37.8050625 C18.5892643,37.2636562 19.301675,36.9943594 20.1135411,36.9943594 C20.6637196,36.9943594 21.2181304,37.1300625 21.7281036,37.4190469 C22.1428536,37.6426406 22.4955321,37.9562344 22.7508714,38.3218594 L21.6201839,39.1445156 C21.5524696,38.9645156 21.4487821,38.826 21.3408625,38.7036562 C21.0333268,38.3218594 20.6277464,38.1285 20.1220054,38.1285 C19.6494161,38.1285 19.2558268,38.3218594 18.9363,38.7036562 C18.6061929,39.0763125 18.4545411,39.562875 18.4545411,40.1598281 C18.4545411,40.7687344 18.6061929,41.261625 18.9363,41.6434219 C19.2558268,42.0132656 19.6494161,42.1974844 20.1220054,42.1974844 C20.6143446,42.1974844 21.0156929,42.0132656 21.3225232,41.6307656 C21.4487821,41.4964687 21.5524696,41.3382656 21.6201839,41.1674062 L22.7656839,41.9830312 Z" id="Fill-21" fill="#000000" mask="url(#mask-4)"></path>
                    <path d="M67.8703107,37.2513516 C67.3278911,36.4905703 66.733275,36.0813516 66.733275,36.0813516 L66.1555875,36.4997109 L67.1254536,37.8054141 L67.8703107,37.2513516 Z M71.4591679,38.8826016 L72.618775,38.8826016 L72.618775,38.3890078 L71.4591679,38.3890078 L71.4591679,38.8826016 Z M71.4591679,40.0666641 L72.618775,40.0666641 L72.618775,39.5758828 L71.4591679,39.5758828 L71.4591679,40.0666641 Z M69.3226411,38.8826016 L70.4723732,38.8826016 L70.4723732,38.3890078 L69.3226411,38.3890078 L69.3226411,38.8826016 Z M69.3226411,40.0666641 L70.4723732,40.0666641 L70.4723732,39.5758828 L69.3226411,39.5758828 L69.3226411,40.0666641 Z M70.8151768,37.3821328 C70.3510518,37.0657266 69.8192125,36.8322891 69.8192125,36.8322891 L69.4263286,37.3279922 L69.8192125,37.6640859 L68.3287929,37.6640859 L68.3287929,42.0304922 L68.6271589,42.0304922 C68.9572661,42.0304922 69.3226411,41.8153359 69.3226411,41.3751797 L69.3226411,40.7768203 L70.4723732,40.7768203 L70.4723732,42.0304922 L70.7827304,42.0304922 C71.16715,42.0304922 71.4464714,41.8272891 71.4598732,41.3695547 L71.4598732,40.7768203 L72.618775,40.7768203 L72.618775,41.0700234 C72.618775,41.1993984 72.4473732,41.2936172 72.3309893,41.2936172 L71.8795607,41.2936172 L72.0791768,42.0304922 L72.7951143,42.0304922 C73.2775786,42.0304922 73.6746946,41.6430703 73.6746946,41.1536953 L73.6746946,38.2680703 C73.6746946,37.9390078 73.3904357,37.6640859 73.0758464,37.6640859 L71.9113018,37.6640859 L73.4454536,36.7577578 L73.4454536,35.9252578 L68.2716589,35.9252578 L68.2716589,36.6396328 L72.0509625,36.6396328 L70.8151768,37.3821328 Z M68.2117036,42.3679922 C67.9500161,42.3679922 67.7341768,42.1577578 67.7341768,41.8919766 L67.7341768,38.1281484 L66.0843464,38.1281484 L66.0843464,38.8608047 L66.6331143,38.8608047 L66.6331143,42.1872891 C66.6331143,42.7441641 67.1254536,43.1006484 67.5183375,43.1006484 L73.784025,43.1006484 L73.784025,42.3679922 L68.2117036,42.3679922 Z" id="Fill-22" fill="#000000" mask="url(#mask-4)"></path>
                    <path d="M63.8816571,39.9725156 L65.1632911,39.9725156 L65.1632911,39.2391562 L63.7427018,39.2391562 L63.7427018,38.1282187 L65.1632911,38.1282187 L65.1632911,37.4025937 L64.2336304,37.4025937 L65.0723,36.352125 L64.2703089,35.7847031 L63.2461304,37.4025937 L62.4843446,37.4025937 L63.1022375,36.9504844 C62.5732196,36.2304844 62.1267286,35.7847031 62.1267286,35.7847031 L61.5497464,36.1362656 L62.2988357,37.4025937 L61.3649429,37.4025937 L61.3649429,38.1282187 L62.5922643,38.1282187 L62.5922643,39.2391562 L61.3649429,39.2391562 L61.3649429,39.9725156 L62.4568357,39.9725156 L61.1836661,43.2364219 L61.7260857,43.2364219 C62.0188089,43.2364219 62.3199964,43.0339219 62.4300321,42.7737656 L63.2129786,40.8218906 L64.2823,43.2364219 L65.3572643,43.2364219 L63.8816571,39.9725156 Z M58.9829518,39.4184531 L59.8724071,39.4184531 L59.8724071,38.5261875 L58.9829518,38.5261875 L58.9829518,39.4184531 Z M59.8724071,41.0335312 L58.9878893,41.2747031 L58.9878893,40.1468906 L59.8724071,40.1468906 L59.8724071,41.0335312 Z M61.4107911,40.6144687 L60.9233893,40.7487656 L60.9233893,36.6748594 C60.9233893,36.217125 60.6419518,35.9337656 60.2963268,35.9337656 L57.7062554,35.9337656 L57.7062554,36.6748594 L59.8724071,36.6748594 L59.8724071,37.8047812 L58.9878893,37.8047812 L58.9878893,37.0432969 L58.0130857,37.0432969 L58.0130857,41.5594687 L57.5757643,41.6937656 L57.5757643,42.494625 L59.8724071,41.8463437 L59.8724071,43.3257187 L60.2963268,43.3257187 C60.6158536,43.3257187 60.8239339,43.1232187 60.9233893,42.7322812 L60.9233893,41.5594687 L61.4107911,41.4195469 L61.4107911,40.6144687 Z" id="Fill-23" fill="#000000" mask="url(#mask-4)"></path>
                    <path d="M46.5384063,40.0326328 C46.5384063,40.2998203 46.3253884,40.5023203 46.0594688,40.5023203 L44.6113705,40.5023203 L44.6113705,37.5435703 L46.5384063,37.5435703 L46.5384063,40.0326328 Z M46.9933616,36.8024766 L44.6113705,36.8024766 L44.6113705,35.7843516 L43.352308,35.7843516 L43.352308,36.8024766 L41.7878259,36.8024766 L41.7878259,37.5435703 L43.352308,37.5435703 L43.352308,40.5023203 L41.4175134,40.5023203 L41.4175134,36.8024766 L40.1676205,36.8024766 L40.1676205,41.2209141 L43.352308,41.2209141 L43.352308,43.3302891 L43.547692,43.3302891 C44.2601027,43.2951328 44.5761027,42.9892734 44.6113705,42.4619297 L44.6113705,41.2209141 L46.7140402,41.2209141 C47.2776205,41.2209141 47.7473884,40.7772422 47.7784241,40.1908359 L47.7784241,37.5527109 C47.7473884,37.1371641 47.4264509,36.8024766 46.9933616,36.8024766 L46.9933616,36.8024766 Z" id="Fill-24" fill="#000000" mask="url(#mask-4)"></path>
                    <path d="M54.868392,40.9469062 L54.3097491,40.9469062 L54.6835884,40.4891719 C54.1933652,40.0476094 53.8096509,39.8155781 53.8096509,39.8155781 L53.3709188,40.2501094 L54.0022134,40.9469062 L53.1508473,40.9469062 L53.1508473,39.7333125 L54.8422938,39.7333125 L54.8422938,38.99925 L53.1508473,38.99925 L53.1508473,38.1013594 L54.8422938,38.1013594 L54.8422938,37.3722188 L50.4747223,37.3722188 L50.4747223,38.1013594 L52.004642,38.1013594 L52.004642,38.99925 L50.4747223,38.99925 L50.4747223,39.7333125 L52.004642,39.7333125 L52.004642,40.9469062 L50.4450973,40.9469062 L50.4450973,41.67675 L54.868392,41.67675 L54.868392,40.9469062 Z M55.6139545,35.9251875 L50.4450973,35.9251875 L50.4450973,36.6395625 L55.2570438,36.6395625 L55.2570438,41.9228437 C55.2570438,42.1879219 55.0546063,42.3855 54.791508,42.3855 L50.0564455,42.3855 L50.0564455,35.9251875 L48.906008,35.9251875 L48.906008,43.1195625 L55.3663741,43.1195625 C55.9384188,43.1195625 56.4124188,42.661125 56.4124188,42.0669844 L56.4124188,36.7070625 C56.4124188,36.2753437 56.0646777,35.9251875 55.6139545,35.9251875 L55.6139545,35.9251875 Z" id="Fill-25" fill="#000000" mask="url(#mask-4)"></path>
                    <polygon id="Fill-26" fill="#F26F21" mask="url(#mask-4)" points="105.416754 4.54886719 101.482271 4.54886719 101.482271 9.55933594 105.412521 9.56355469"></polygon>
                    <path d="M147.148574,16.7281875 C150.436949,21.87225 153.829717,29.5335 153.829717,29.5335 L157.590681,27.2195156 C157.590681,27.2195156 153.212529,20.0286562 147.148574,16.7281875" id="Fill-27" fill="#F26F21" mask="url(#mask-4)"></path>
                    <polygon id="Fill-28" fill="#F26F21" mask="url(#mask-4)" points="105.412663 11.5704844 101.490877 11.5592344 101.490877 16.5654844 105.419011 16.5654844"></polygon>
                    <path d="M105.411957,18.5722031 L101.482413,18.5799375 L101.489466,29.0494687 C101.489466,29.0494687 105.412663,28.0215 105.421127,23.6332969 L105.411957,18.5722031 Z" id="Fill-29" fill="#F26F21" mask="url(#mask-4)"></path>
                    <path d="M119.189839,15.9536953 C119.206063,15.8496328 119.211,15.7666641 119.211,15.7666641 L128.229696,15.7772109 L128.229696,12.3572109 L119.218759,12.3649453 L119.218759,7.96057031 L123.500982,7.97674219 C127.578652,7.97182031 129.162884,4.54900781 129.162884,4.54900781 L108.663089,4.54900781 L108.660268,7.97182031 L115.289214,7.96830469 L115.284982,12.3508828 L108.155938,12.3586172 L108.151705,15.7624453 L115.29133,15.7722891 C115.284982,18.4842422 111.404813,25.3966641 104.572723,29.3707266 C104.572723,29.3707266 111.18333,28.8342422 115.713839,24.0115078 C117.188741,22.4386172 118.072554,20.3327578 118.577589,18.6445547 C118.854089,20.2476797 119.441652,22.0842422 120.609018,23.8462734 C122.91342,27.3485391 126.19192,29.5338516 126.19192,29.5338516 L129.392125,26.6981484 C126.828857,25.7897109 121.253009,20.7004922 119.189839,15.9536953" id="Fill-30" fill="#F26F21" mask="url(#mask-4)"></path>
                    <path d="M132.315407,4.54886719 L156.272157,4.54886719 C156.272157,4.54886719 154.979943,7.97660156 149.270782,7.97660156 L132.315407,7.97660156 L132.315407,4.54886719 Z M131.04647,15.7123828 L157.540389,15.7123828 L157.540389,12.4154297 L131.04647,12.4154297 L131.04647,15.7123828 Z" id="Fill-31" fill="#F26F21" mask="url(#mask-4)"></path>
                    <path d="M143.714754,15.1901016 C142.545272,16.7700234 137.556281,24.8123672 137.556281,24.8123672 L152.149415,24.0375234 L152.948585,27.2718984 L132.093996,28.3350234 L132.093996,25.3333828 C134.505612,23.4947109 137.535826,17.7930703 139.447344,15.0480703 L143.714754,15.1901016 Z" id="Fill-32" fill="#F26F21" mask="url(#mask-4)"></path>
                    <polygon id="Fill-33" fill="#F26F21" mask="url(#mask-4)" points="111.591379 34.3533516 109.318013 41.4696797 107.044647 34.3533516 107.042531 34.3568672 107.043942 34.3533516 106.045156 34.3533516 103.78096 41.4373359 101.516058 34.3533516 99.8641116 34.3533516 102.954281 44.0220234 102.936647 44.0733516 103.932612 44.0733516 106.217969 36.9338203 108.492746 44.0536641 108.485692 44.0733516 109.481656 44.0733516 112.590871 34.3533516"></polygon>
                    <path d="M116.863642,42.6888984 C116.551874,43.2035859 116.129365,43.4609297 115.593999,43.4609297 C115.27024,43.4609297 114.998678,43.3835859 114.778606,43.2267891 C114.558535,43.0728047 114.375847,42.8590547 114.230544,42.5862422 C114.085946,42.3134297 113.978731,42.0054609 113.913838,41.6588203 C113.846829,41.3135859 113.813678,40.9367109 113.813678,40.5274922 C113.813678,40.2167109 113.841187,39.8953828 113.896204,39.5649141 C113.953338,39.2330391 114.049267,38.9377266 114.185401,38.6796797 C114.33141,38.3984297 114.51974,38.1769453 114.753213,38.0159297 C114.986687,37.8542109 115.266008,37.7733516 115.593999,37.7733516 C115.914937,37.7733516 116.187204,37.8528047 116.408687,38.0124141 C116.630874,38.1713203 116.811446,38.3829609 116.947579,38.6466328 C117.075249,38.8941328 117.171883,39.1943672 117.236071,39.5487422 C117.300258,39.9031172 117.33341,40.2413203 117.33341,40.5598359 C117.33341,41.4640547 117.176115,42.1756172 116.863642,42.6888984 M115.519231,37.0210078 C113.74949,37.0210078 112.314088,38.4511641 112.314088,40.2160078 L112.314088,41.1821016 C112.314088,42.9476484 113.74949,44.3778047 115.519231,44.3778047 C117.288972,44.3778047 118.725785,42.9476484 118.725785,41.1821016 L118.725785,40.2160078 C118.725785,38.4511641 117.288972,37.0210078 115.519231,37.0210078" id="Fill-34" fill="#F26F21" mask="url(#mask-4)"></path>
                    <path d="M140.083294,42.6888984 C139.771526,43.2035859 139.349017,43.4609297 138.813651,43.4609297 C138.489187,43.4609297 138.218329,43.3835859 137.998258,43.2267891 C137.778187,43.0728047 137.595499,42.8590547 137.448785,42.5862422 C137.304187,42.3134297 137.197678,42.0054609 137.131374,41.6588203 C137.066481,41.3135859 137.03474,40.9367109 137.03474,40.5274922 C137.03474,40.2167109 137.061544,39.8953828 137.116562,39.5649141 C137.171579,39.2330391 137.268919,38.9377266 137.405053,38.6796797 C137.549651,38.3984297 137.739392,38.1769453 137.97216,38.0159297 C138.205633,37.8542109 138.48566,37.7733516 138.813651,37.7733516 C139.134588,37.7733516 139.406856,37.8528047 139.628338,38.0124141 C139.849115,38.1713203 140.030392,38.3829609 140.166526,38.6466328 C140.294901,38.8941328 140.391535,39.1943672 140.454312,39.5487422 C140.517794,39.9031172 140.551651,40.2413203 140.551651,40.5598359 C140.551651,41.4640547 140.395767,42.1756172 140.083294,42.6888984 M138.79249,37.0210078 C137.021338,37.0210078 135.587347,38.4511641 135.587347,40.2160078 L135.587347,41.1821016 C135.587347,42.9476484 137.021338,44.3778047 138.79249,44.3778047 C140.562937,44.3778047 141.997633,42.9476484 141.997633,41.1821016 L141.997633,40.2160078 C141.997633,38.4511641 140.562937,37.0210078 138.79249,37.0210078" id="Fill-35" fill="#F26F21" mask="url(#mask-4)"></path>
                    <path d="M129.577987,40.5047109 C129.452433,41.1255703 129.254933,41.6641641 128.967853,42.0979922 C128.457879,42.8721328 127.763103,43.2588516 126.88846,43.2588516 C126.356621,43.2588516 125.910129,43.1421328 125.548281,42.9093984 C125.187844,42.6745547 124.890183,42.3532266 124.652478,41.9447109 C124.414067,41.5347891 124.240549,41.0693203 124.131219,40.5490078 C124.022594,40.0286953 123.970397,39.4605703 123.970397,38.8467422 C123.970397,38.3791641 124.014129,37.8975234 124.105826,37.3976016 C124.196112,36.8990859 124.354112,36.4561172 124.578415,36.0651797 C124.816121,35.6440078 125.126478,35.3107266 125.508076,35.0667422 C125.888969,34.8241641 126.349567,34.7039297 126.88846,34.7039297 C127.415362,34.7039297 127.857621,34.8220547 128.22229,35.0611172 C128.58696,35.3022891 128.881094,35.6208047 129.103987,36.0173672 C129.314183,36.3872109 129.472183,36.8400234 129.576576,37.3743984 C129.616781,37.5712734 129.640058,37.7618203 129.664746,37.9523672 L131.428138,37.9523672 C131.200308,35.6334609 129.23871,33.8222109 126.852487,33.8222109 C124.31179,33.8222109 122.252853,35.8739297 122.252853,38.4051797 L122.252853,39.7931484 C122.252853,42.3258047 124.31179,44.3775234 126.852487,44.3775234 C129.149129,44.3775234 131.04654,42.6984609 131.390754,40.5047109 L129.577987,40.5047109 Z" id="Fill-36" fill="#F26F21" mask="url(#mask-4)"></path>
                    <path d="M148.318903,37.0385156 C148.318903,37.0617187 148.320313,40.5365625 148.320313,40.5597656 C148.320313,41.4639844 148.163724,42.1755469 147.851956,42.6888281 C147.540188,43.2035156 147.116974,43.4608594 146.582313,43.4608594 C146.25926,43.4608594 145.985581,43.3835156 145.76551,43.2267187 C145.545438,43.0734375 145.362751,42.8589844 145.218153,42.5861719 C145.072849,42.3133594 144.96634,42.0053906 144.902153,41.65875 C144.833733,41.3135156 144.801287,40.9366406 144.801287,40.5274219 C144.801287,40.5154687 144.804813,37.0511719 144.804813,37.0385156 L143.355304,37.0385156 L143.355304,41.1827344 C143.355304,42.9475781 144.790706,44.3777344 146.561153,44.3777344 C148.330894,44.3777344 149.766296,42.9475781 149.766296,41.1827344 L149.766296,37.0385156 L148.318903,37.0385156 Z" id="Fill-37" fill="#F26F21" mask="url(#mask-4)"></path>
                    <polygon id="Fill-38" fill="#F26F21" mask="url(#mask-4)" points="132.921732 44.2722656 134.335973 44.2722656 134.335973 34.1444531 132.921732 34.1444531"></polygon>
                    <path d="M155.520529,42.6888984 C155.20735,43.2035859 154.785546,43.4609297 154.25018,43.4609297 C153.926421,43.4609297 153.655564,43.3835859 153.434787,43.2267891 C153.213305,43.0728047 153.031323,42.8590547 152.88743,42.5862422 C152.742832,42.3134297 152.634207,42.0054609 152.569314,41.6588203 C152.505127,41.3135859 152.47127,40.9367109 152.47127,40.5274922 C152.47127,40.2167109 152.497368,39.8953828 152.552386,39.5649141 C152.60952,39.2330391 152.705448,38.9377266 152.840877,38.6796797 C152.987591,38.3984297 153.175921,38.1769453 153.409395,38.0159297 C153.642162,37.8542109 153.921484,37.7733516 154.25018,37.7733516 C154.571118,37.7733516 154.843386,37.8528047 155.065573,38.0124141 C155.287055,38.1713203 155.466921,38.3829609 155.603761,38.6466328 C155.73143,38.8941328 155.828064,39.1943672 155.892252,39.5487422 C155.956439,39.9031172 155.98818,40.2413203 155.98818,40.5598359 C155.98818,41.4640547 155.830886,42.1756172 155.520529,42.6888984 M157.402421,39.7913203 L157.402421,34.1621016 L155.957145,34.1621016 L155.957145,37.5293672 C155.458457,37.2087422 154.865957,37.0210078 154.22902,37.0210078 C152.457868,37.0210078 151.023877,38.4511641 151.023877,40.2160078 L151.023877,41.1821016 C151.023877,42.9476484 152.457868,44.3778047 154.22902,44.3778047 C155.999466,44.3778047 157.434868,42.9476484 157.434868,41.1821016 L157.434868,40.2160078 C157.434868,40.0718672 157.420761,39.9305391 157.402421,39.7913203" id="Fill-39" fill="#F26F21" mask="url(#mask-4)"></path>
                </g>
            </g>
        </g>
    </g>
</svg>